<svg id="Layer_1" data-name="Layer 1" xmlns="http://www.w3.org/2000/svg" viewBox="0 0 578.2 122.63"><defs><style>.cls-1{opacity:0.1;}.cls-2{fill:#fff;}.cls-3{fill:#e6e6e6;}</style></defs><title>footer-clouds</title><g class="cls-1"><path class="cls-2" d="M519,57.91a4.57,4.57,0,0,0,4.47,4.67h51a4.67,4.67,0,0,0,0-9.33h-0.67a7.86,7.86,0,0,0,.2-1.72c0-5.2-5.1-9.41-11.4-9.41a13.45,13.45,0,0,0-4.45.74c-2-4.08-6.84-7-12.5-7-7.45,0-13.48,5-13.48,11.14a9,9,0,0,0,.07,1.09,5.69,5.69,0,0,0-3.23-1c-2.79,0-5.05,1.87-5.05,4.18a3.57,3.57,0,0,0,.6,1.93h-1A4.57,4.57,0,0,0,519,57.91Z" transform="translate(-0.68 -1.42)"/><path class="cls-3" d="M545.59,35.88c-7.45,0-13.48,5-13.48,11.14a9,9,0,0,0,.07,1.09,5.69,5.69,0,0,0-3.23-1c-2.79,0-5.05,1.87-5.05,4.18a3.57,3.57,0,0,0,.6,1.93h-1a4.67,4.67,0,0,0,0,9.33h25.48V36.23A16.17,16.17,0,0,0,545.59,35.88Z" transform="translate(-0.68 -1.42)"/></g><g class="cls-1"><path class="cls-2" d="M0.68,113.31A10.53,10.53,0,0,0,11,124.06H128.37a10.76,10.76,0,0,0,0-21.51h-1.54a18.13,18.13,0,0,0,.46-4c0-12-11.76-21.69-26.26-21.69a31,31,0,0,0-10.25,1.71c-4.61-9.4-15.75-16-28.79-16-17.16,0-31.07,11.49-31.07,25.66a20.79,20.79,0,0,0,.16,2.52,13.11,13.11,0,0,0-7.44-2.28C17.21,88.48,12,92.79,12,98.11a8.22,8.22,0,0,0,1.38,4.44H11A10.53,10.53,0,0,0,.68,113.31Z" transform="translate(-0.68 -1.42)"/><path class="cls-3" d="M62,62.57c-17.16,0-31.07,11.49-31.07,25.66a20.79,20.79,0,0,0,.16,2.52,13.11,13.11,0,0,0-7.44-2.28C17.21,88.48,12,92.79,12,98.11a8.22,8.22,0,0,0,1.38,4.44H11a10.76,10.76,0,0,0,0,21.51h58.7V63.38A37.28,37.28,0,0,0,62,62.57Z" transform="translate(-0.68 -1.42)"/></g><g class="cls-1"><path class="cls-2" d="M219.49,66.28c0,7.59,5.89,13.74,13.17,13.74H382.72c7.27,0,13.16-6.15,13.16-13.74S390,52.53,382.72,52.53h-2a23.2,23.2,0,0,0,.58-5.06c0-15.31-15-27.72-33.57-27.72a39.6,39.6,0,0,0-13.11,2.19c-5.9-12-20.14-20.51-36.81-20.51-21.93,0-39.72,14.69-39.72,32.81a26.62,26.62,0,0,0,.2,3.22,16.76,16.76,0,0,0-9.51-2.91c-8.22,0-14.88,5.51-14.88,12.3a10.5,10.5,0,0,0,1.76,5.68h-3.06C225.38,52.53,219.49,58.68,219.49,66.28Z" transform="translate(-0.68 -1.42)"/><path class="cls-3" d="M297.86,1.42c-21.93,0-39.72,14.69-39.72,32.81a26.62,26.62,0,0,0,.2,3.22,16.76,16.76,0,0,0-9.51-2.91c-8.22,0-14.88,5.51-14.88,12.3a10.5,10.5,0,0,0,1.76,5.68h-3.06c-7.27,0-13.17,6.14-13.17,13.75S225.38,80,232.65,80h75V2.46A47.68,47.68,0,0,0,297.86,1.42Z" transform="translate(-0.68 -1.42)"/></g></svg>