<svg id="Layer_1" data-name="Layer 1" xmlns="http://www.w3.org/2000/svg" viewBox="0 0 285.35 36.01"><defs><style>.cls-1{fill:#fff;}.cls-2{fill:#59b3ad;}</style></defs><title>logo</title><path class="cls-1" d="M87.84,39.29a1.25,1.25,0,0,1,.38.92,1.2,1.2,0,0,1-.37.9,1.28,1.28,0,0,1-.92.36H73.58A1.68,1.68,0,0,1,72.35,41a1.64,1.64,0,0,1-.51-1.2,1.77,1.77,0,0,1,.36-1.14L84.74,23.13H73.19a1.28,1.28,0,0,1-1.29-1.29,1.29,1.29,0,0,1,.38-0.93,1.22,1.22,0,0,1,.91-0.39h13a1.69,1.69,0,0,1,1.35.56A1.87,1.87,0,0,1,88,22.34a1.82,1.82,0,0,1-.48,1.25L75.17,38.91H86.93A1.25,1.25,0,0,1,87.84,39.29Z" transform="translate(-2.82 -6.31)"/><path class="cls-1" d="M108.17,20.37a1.38,1.38,0,0,1,1.38,1.38V33.6a7.48,7.48,0,0,1-2.82,6.18,9.5,9.5,0,0,1-11.61,0,7.51,7.51,0,0,1-2.79-6.18V21.75a1.35,1.35,0,0,1,.39-1,1.28,1.28,0,0,1,1-.4,1.38,1.38,0,0,1,1.38,1.38V33.69a5.18,5.18,0,0,0,1.83,4.2,6.63,6.63,0,0,0,8.1,0,5.18,5.18,0,0,0,1.83-4.2V21.75a1.35,1.35,0,0,1,.39-1A1.28,1.28,0,0,1,108.17,20.37Z" transform="translate(-2.82 -6.31)"/><path class="cls-1" d="M137.81,21a1.93,1.93,0,0,1,.57,1.4V40.26A1.33,1.33,0,0,1,137,41.61a1.36,1.36,0,0,1-1-.39,1.28,1.28,0,0,1-.41-1v-17l-6.93,17.13a2.08,2.08,0,0,1-3.84,0l-6.93-17.13v17a1.28,1.28,0,0,1-.41,1,1.36,1.36,0,0,1-1,.39,1.33,1.33,0,0,1-1.35-1.35V22.35a1.93,1.93,0,0,1,.57-1.4,1.85,1.85,0,0,1,1.38-.58h1a1.82,1.82,0,0,1,1.09.36,2.21,2.21,0,0,1,.74.9l6.81,17,6.81-17a2.21,2.21,0,0,1,.74-0.9,1.82,1.82,0,0,1,1.09-.36h1A1.86,1.86,0,0,1,137.81,21Z" transform="translate(-2.82 -6.31)"/><path class="cls-1" d="M166.79,21a1.93,1.93,0,0,1,.57,1.4V40.26A1.33,1.33,0,0,1,166,41.61a1.35,1.35,0,0,1-1-.39,1.28,1.28,0,0,1-.41-1v-17L157.7,40.35a2.08,2.08,0,0,1-3.84,0l-6.93-17.13v17a1.28,1.28,0,0,1-.41,1,1.36,1.36,0,0,1-1,.39,1.33,1.33,0,0,1-1.35-1.35V22.35a1.93,1.93,0,0,1,.57-1.4,1.85,1.85,0,0,1,1.38-.58h1a1.82,1.82,0,0,1,1.09.36,2.21,2.21,0,0,1,.74.9l6.81,17,6.81-17a2.21,2.21,0,0,1,.74-0.9,1.82,1.82,0,0,1,1.09-.36h1A1.85,1.85,0,0,1,166.79,21Z" transform="translate(-2.82 -6.31)"/><path class="cls-1" d="M182.45,20.22a10,10,0,0,1,7.62,3A11.28,11.28,0,0,1,193,31a11.29,11.29,0,0,1-2.91,7.74,11.1,11.1,0,0,1-15.24,0A11,11,0,0,1,171.92,31a11,11,0,0,1,2.91-7.74A10,10,0,0,1,182.45,20.22Zm0,19a7.3,7.3,0,0,0,5.76-2.37,8.44,8.44,0,0,0,2-5.85,8.45,8.45,0,0,0-2-5.85,8.18,8.18,0,0,0-11.52,0,8.44,8.44,0,0,0-2,5.85,8.44,8.44,0,0,0,2,5.85A7.3,7.3,0,0,0,182.45,39.21Z" transform="translate(-2.82 -6.31)"/><path class="cls-1" d="M220.46,26a4.74,4.74,0,0,1-2.94,4.62,5.82,5.82,0,0,1,3.78,3.15,5.5,5.5,0,0,1,.33,2,6.15,6.15,0,0,1-.42,2.25,4.55,4.55,0,0,1-1.35,1.86q-1.92,1.62-5.94,1.62h-7.26a1.33,1.33,0,0,1-1.35-1.35V21.9a1.36,1.36,0,0,1,.39-1,1.28,1.28,0,0,1,1-.4h7.08a7.39,7.39,0,0,1,5,1.5A5,5,0,0,1,220.46,26Zm-2.61.21a2.67,2.67,0,0,0-1.12-2.25,5.26,5.26,0,0,0-3.2-.84H208v6.51h5q3.87,0,4.62-2.07A4.25,4.25,0,0,0,217.85,26.16Zm-4.2,12.75q4.26,0,5.07-2a3.55,3.55,0,0,0,.27-1.41,2.81,2.81,0,0,0-1.35-2.61,7.81,7.81,0,0,0-4-.81H208v6.87h5.61Z" transform="translate(-2.82 -6.31)"/><path class="cls-1" d="M227.45,20.37a1.38,1.38,0,0,1,1.38,1.38V40.26a1.28,1.28,0,0,1-.4,1,1.36,1.36,0,0,1-1,.39,1.33,1.33,0,0,1-1.35-1.35V21.75a1.36,1.36,0,0,1,.39-1A1.28,1.28,0,0,1,227.45,20.37Z" transform="translate(-2.82 -6.31)"/><path class="cls-1" d="M250.61,39.42a1.48,1.48,0,0,1,.33.93,1.21,1.21,0,0,1-.37.88,1.36,1.36,0,0,1-1,.38,1.2,1.2,0,0,1-1-.54l-7.74-9.87-3.42,3.45v5.61a1.28,1.28,0,0,1-.4,1,1.36,1.36,0,0,1-1,.39,1.33,1.33,0,0,1-1.35-1.35V21.75a1.36,1.36,0,0,1,.39-1,1.28,1.28,0,0,1,1-.4,1.38,1.38,0,0,1,1.38,1.38v9.54l10.26-10.44a1.21,1.21,0,0,1,1-.48,1.31,1.31,0,0,1,.95.34,1.33,1.33,0,0,1,0,1.79l-6.93,6.9Z" transform="translate(-2.82 -6.31)"/><path class="cls-1" d="M269,39.29a1.25,1.25,0,0,1,.38.92,1.2,1.2,0,0,1-.37.9,1.27,1.27,0,0,1-.92.36h-12a1.33,1.33,0,0,1-1.35-1.35V21.9a1.36,1.36,0,0,1,.39-1,1.28,1.28,0,0,1,1-.4h12a1.28,1.28,0,0,1,1.29,1.29,1.2,1.2,0,0,1-.37.9,1.27,1.27,0,0,1-.92.36H257.47v6.63H267A1.28,1.28,0,0,1,268.33,31a1.2,1.2,0,0,1-.37.9,1.27,1.27,0,0,1-.92.36h-9.57v6.66h10.65A1.24,1.24,0,0,1,269,39.29Z" transform="translate(-2.82 -6.31)"/><path class="cls-1" d="M280.21,39.18q5.25,0,5.25-3.45,0-1.44-2-2.31a14.49,14.49,0,0,0-2-.64q-1.16-.28-2.34-0.62t-2.34-.75a8.15,8.15,0,0,1-2.06-1.08,4.73,4.73,0,0,1-2-4,5.41,5.41,0,0,1,2-4.32,8.66,8.66,0,0,1,5.79-1.83,17.23,17.23,0,0,1,6,1,1.17,1.17,0,0,1,.84,1.2,1.37,1.37,0,0,1-.32.85,0.88,0.88,0,0,1-.69.4,3.26,3.26,0,0,1-1-.24,13.37,13.37,0,0,0-4.47-.69,7.51,7.51,0,0,0-3.81.87,2.82,2.82,0,0,0-1.53,2.55,2.79,2.79,0,0,0,2,2.58,10.53,10.53,0,0,0,2,.69L281.8,30q1.2,0.3,2.34.71a7.89,7.89,0,0,1,2,1.07,4.81,4.81,0,0,1,2,4.14,5.09,5.09,0,0,1-2.07,4.2,8.91,8.91,0,0,1-5.61,1.65,17.79,17.79,0,0,1-7.14-1.44,1.54,1.54,0,0,1-.58-0.48A1.26,1.26,0,0,1,272.5,39a1.24,1.24,0,0,1,.33-0.84,1,1,0,0,1,.76-0.37,2.81,2.81,0,0,1,1.08.29,15.65,15.65,0,0,0,2.12.68A13.41,13.41,0,0,0,280.21,39.18Z" transform="translate(-2.82 -6.31)"/><path class="cls-1" d="M13,24.4a7.73,7.73,0,0,1,1.57-1.88L18,19A11.33,11.33,0,0,0,19.63,17a16,16,0,0,0-2.45-1.73q-2.43-1.58-2.51-2t3.14-2.1Q21,9.41,24.24,7.8a15.72,15.72,0,0,1,3.37-1.48Q27.74,6.45,24.35,10A48.16,48.16,0,0,0,21,13.64a25.63,25.63,0,0,0,2.49,1.69q2.46,1.58,2.46,2t-6.36,3.84Q13.22,24.59,13,24.4Z" transform="translate(-2.82 -6.31)"/><path class="cls-1" d="M12.85,42.32a10,10,0,1,1,10-10A10,10,0,0,1,12.85,42.32Zm0-17.47a7.43,7.43,0,1,0,7.43,7.43A7.44,7.44,0,0,0,12.85,24.86Z" transform="translate(-2.82 -6.31)"/><path class="cls-1" d="M43.68,42.32a10,10,0,1,1,10-10A10,10,0,0,1,43.68,42.32Zm0-17.47a7.43,7.43,0,1,0,7.43,7.43A7.44,7.44,0,0,0,43.68,24.86Z" transform="translate(-2.82 -6.31)"/><path class="cls-2" d="M31,36.33q-9.26-5.44-9.35-6.2t2.87-3.39a29.57,29.57,0,0,0,3-2.81q0-.17-5.27-5.93t-5.16-6q0.14-.21,4.84,2.38t9.36,5.49Q36,22.8,36,23.3,36,24,33,26.59a18.69,18.69,0,0,0-2.93,2.87,21.6,21.6,0,0,0,2.66,3.16L38,38.39q2.6,2.85,2.5,3.05T31,36.33Z" transform="translate(-2.82 -6.31)"/></svg>