<svg id="Layer_1" data-name="Layer 1" xmlns="http://www.w3.org/2000/svg" viewBox="0 0 411.14 163.78"><defs><style>.cls-1{fill:#c6f81c;}.cls-2{opacity:0.1;}.cls-3{fill:#754c24;}.cls-4{fill:none;}.cls-5{fill:#333;}.cls-6{fill:#fff;}</style></defs><title>trees</title><path class="cls-1" d="M1.43,52.68a51,51,0,1,0,51-51A51,51,0,0,0,1.43,52.68Z" transform="translate(-1.43 -1.65)"/><g class="cls-2"><path d="M52.45,103.7V1.65A51,51,0,1,1,52.45,103.7Z" transform="translate(-1.43 -1.65)"/></g><rect class="cls-3" x="44.25" y="73.26" width="13.55" height="89.82"/><path class="cls-1" d="M89.24,74.71a41.31,41.31,0,1,0,41.31-41.31A41.32,41.32,0,0,0,89.24,74.71Z" transform="translate(-1.43 -1.65)"/><g class="cls-2"><path d="M130.55,116V33.39A41.31,41.31,0,1,1,130.55,116Z" transform="translate(-1.43 -1.65)"/></g><rect class="cls-3" x="123.64" y="91.06" width="10.97" height="72.72"/><path class="cls-1" d="M150.64,52.68a51,51,0,1,0,51-51A51,51,0,0,0,150.64,52.68Z" transform="translate(-1.43 -1.65)"/><g class="cls-2"><path d="M201.67,103.7V1.65A51,51,0,1,1,201.67,103.7Z" transform="translate(-1.43 -1.65)"/></g><rect class="cls-3" x="193.47" y="73.26" width="13.55" height="89.82"/><circle class="cls-1" cx="264.74" cy="95.59" r="30.73"/><g class="cls-2"><path d="M266.17,128V66.51A30.73,30.73,0,1,1,266.17,128Z" transform="translate(-1.43 -1.65)"/></g><rect class="cls-3" x="260.66" y="108.98" width="8.16" height="54.1"/><circle class="cls-1" cx="305.61" cy="107.26" r="25.5"/><g class="cls-2"><path d="M307,134.41v-51A25.5,25.5,0,1,1,307,134.41Z" transform="translate(-1.43 -1.65)"/></g><rect class="cls-3" x="302.22" y="118.37" width="6.77" height="44.89"/><path class="cls-4" d="M382.88,144l-4.43-.43,3.89-12.06,4.84,6.25A15.28,15.28,0,0,0,382.88,144Z" transform="translate(-1.43 -1.65)"/><path class="cls-4" d="M393.79,146.33l1.23,1.6a2.41,2.41,0,0,0-.2.43l-9.75-.05a12.2,12.2,0,0,1,.52-2.69Z" transform="translate(-1.43 -1.65)"/><path class="cls-4" d="M389.07,140.23l3.67,4.74-6.65-.63A12.36,12.36,0,0,1,389.07,140.23Z" transform="translate(-1.43 -1.65)"/><path class="cls-4" d="M396.45,146.75l-0.16-.21,1,0.08A2.58,2.58,0,0,0,396.45,146.75Z" transform="translate(-1.43 -1.65)"/><path class="cls-4" d="M409.48,149.29a12.22,12.22,0,0,1-23.47,4.8l11.3-1a3.82,3.82,0,0,0,0-7.63l-2.05-.2-4.73-6.11A12.22,12.22,0,0,1,409.48,149.29Z" transform="translate(-1.43 -1.65)"/><path class="cls-4" d="M397.26,151.76l-11.72,1a12.33,12.33,0,0,1-.49-2.74h9.78A2.56,2.56,0,0,0,397.26,151.76Z" transform="translate(-1.43 -1.65)"/><path class="cls-4" d="M359.56,149.29a12.23,12.23,0,1,1-6.16-10.6,80.93,80.93,0,0,1-5.23,8.18,2.61,2.61,0,0,0-.83-0.14,2.57,2.57,0,1,0,2.57,2.56,2.51,2.51,0,0,0-.33-1.25,83.15,83.15,0,0,0,5.35-8.32A12.19,12.19,0,0,1,359.56,149.29Z" transform="translate(-1.43 -1.65)"/><path class="cls-4" d="M376.37,153.55A4.4,4.4,0,0,0,380,150H382a14.93,14.93,0,0,0,.45,3Z" transform="translate(-1.43 -1.65)"/><path class="cls-4" d="M376.56,143.42l-0.82-.08h0a5.42,5.42,0,0,0-3.21,1.06L360,131.09h20.58Z" transform="translate(-1.43 -1.65)"/><path class="cls-4" d="M377.89,145.36L378,145l4.45,0.38a16.34,16.34,0,0,0-.48,2.94h-2A4.41,4.41,0,0,0,377.89,145.36Z" transform="translate(-1.43 -1.65)"/><path class="cls-5" d="M381.63,127.93l0.82-2.5-0.32-.15a9.18,9.18,0,0,0-2.78,0c-1.08,0-1.92-.08-1.92-1.17v-0.06c0-1.09,1-1.24,2.05-1.33,1.51-.12,5.31-0.59,5.94-0.59a2.87,2.87,0,0,1,2.15,1.15,2.11,2.11,0,0,1,.49,1.31c0,1.38-.91,1.95-2.73,1.95a3.39,3.39,0,0,1-1.27-.31l-0.74,2.25C383.36,128.06,382,127.64,381.63,127.93Z" transform="translate(-1.43 -1.65)"/><path class="cls-5" d="M347.33,134a15.2,15.2,0,0,1,7.51,2c-0.27.54-.55,1.09-0.85,1.64a13.51,13.51,0,1,0,1.53,1c0.3-.55.59-1.11,0.86-1.66A15.3,15.3,0,1,1,347.33,134Z" transform="translate(-1.43 -1.65)"/><path class="cls-5" d="M347.33,151.86a2.57,2.57,0,0,1,0-5.14,2.61,2.61,0,0,1,.83.14,16.69,16.69,0,0,1-1.35,1.64,0.92,0.92,0,0,0,0,1.31,0.93,0.93,0,0,0,1.31,0,18,18,0,0,0,1.44-1.77,2.51,2.51,0,0,1,.33,1.25A2.57,2.57,0,0,1,347.33,151.86Z" transform="translate(-1.43 -1.65)"/><path class="cls-5" d="M395.36,148.36h-0.54a2.41,2.41,0,0,1,.2-0.43Z" transform="translate(-1.43 -1.65)"/><path class="cls-5" d="M374.66,149.7a1.36,1.36,0,0,0,1,.32H380a4.4,4.4,0,0,1-3.65,3.53l6-.51a14.93,14.93,0,0,1-.45-3h1.85a13.66,13.66,0,0,0,.47,2.85l1.25-.11,11.72-1a2.56,2.56,0,0,1-2.42-1.73h2.42a0.84,0.84,0,0,0,.82-0.42,0.75,0.75,0,0,0-.1-0.88l-1.53-2a2.58,2.58,0,0,1,.8-0.13l-1-.08-1-1.33,2.05,0.2a3.82,3.82,0,0,1,0,7.63l-11.3,1-1.28.12a13.46,13.46,0,1,0,5-16.09l-1.13-1.46a15.3,15.3,0,1,1-5.81,17.73l-7.09.66h-0.07l-0.55,3.49,0.42,0.09a0.9,0.9,0,0,1,.71,1.05v0a0.9,0.9,0,0,1-1.06.71l-3.68-.72a0.9,0.9,0,0,1-.7-1.06v0a0.91,0.91,0,0,1,1.06-.71l1.44,0.28,0.54-3.46a5.86,5.86,0,0,1-2.77-8.83Z" transform="translate(-1.43 -1.65)"/><path class="cls-5" d="M380,148.29l-3.05,0,0.93-2.91A4.41,4.41,0,0,1,380,148.29Z" transform="translate(-1.43 -1.65)"/><path class="cls-6" d="M353.4,138.69a12.29,12.29,0,1,0,1.52,1l0.61-1.09a13.38,13.38,0,1,1-1.53-1Z" transform="translate(-1.43 -1.65)"/><path class="cls-6" d="M384.29,152.87a13.66,13.66,0,0,1-.47-2.85h1.23a12.33,12.33,0,0,0,.49,2.74Z" transform="translate(-1.43 -1.65)"/><path class="cls-6" d="M386.09,144.33l-1.29-.13a13.52,13.52,0,0,1,3.51-5l0.75,1A12.36,12.36,0,0,0,386.09,144.33Z" transform="translate(-1.43 -1.65)"/><path class="cls-6" d="M385.6,145.62a12.2,12.2,0,0,0-.52,2.69h-1.23a13.4,13.4,0,0,1,.5-2.79Z" transform="translate(-1.43 -1.65)"/><path class="cls-6" d="M410.71,149.29a13.45,13.45,0,0,1-26,4.91l1.28-.12a12.22,12.22,0,1,0,4.51-15l-0.75-1A13.45,13.45,0,0,1,410.71,149.29Z" transform="translate(-1.43 -1.65)"/><path class="cls-5" d="M356.9,127.43v-6.14a0.94,0.94,0,0,1,.37-0.76,0.92,0.92,0,0,1,.82-0.15l3.55,0.37a1.21,1.21,0,0,1,.79-0.26l4.79,0.18a1.23,1.23,0,0,1,.27,2.42,1,1,0,0,1-.37,0l-4.78-.18a1.25,1.25,0,0,1-.76-0.31l-2.83-.14,0,5.91v0c0-.53,0-1,0-1C358.72,127,357.06,127,356.9,127.43Z" transform="translate(-1.43 -1.65)"/><path class="cls-6" d="M355.53,138.63c0.3-.55.59-1.11,0.86-1.66a30.32,30.32,0,0,0,2-4.71l12.73,13.62,3.58,3.83a1.36,1.36,0,0,0,1,.32h21.57a0.84,0.84,0,0,0,.82-0.42,0.75,0.75,0,0,0-.1-0.88l-1.53-2-0.16-.21-1-1.33-4.73-6.11-0.75-1-1.13-1.46-5.44-7a0.91,0.91,0,0,0-.18-0.16l0.3-.92a0.1,0.1,0,0,0,0,0c0-.43-1.35-0.85-1.69-0.56a0.17,0.17,0,0,0-.07.1l-0.43,1.39H358.76c0-.32,0-0.66,0-1,0-.54,0-1,0-1,0-.49-1.68-0.46-1.83,0a0.11,0.11,0,0,0,0,.07s0,1.6,0,2.46a0.91,0.91,0,0,0,0,.55,20,20,0,0,1-2,5.44c-0.27.54-.55,1.09-0.85,1.64l-0.59,1.08a80.93,80.93,0,0,1-5.23,8.18,16.69,16.69,0,0,1-1.35,1.64,0.92,0.92,0,0,0,0,1.31,0.93,0.93,0,0,0,1.31,0,18,18,0,0,0,1.44-1.77,83.15,83.15,0,0,0,5.35-8.32ZM377,148.27l0.93-2.91L378,145l0.45-1.37,3.89-12.06,4.84,6.25,1.13,1.46,0.75,1,3.67,4.74,1.05,1.36,1.23,1.6,0.34,0.43h-0.54l-9.75-.05H380Zm-17-17.18h20.58l-4,12.33-1.28,4-2.8-3Z" transform="translate(-1.43 -1.65)"/><path class="cls-5" d="M378,145l0.45-1.37,4.43,0.43a15.28,15.28,0,0,1,4.3-6.24l1.13,1.46a13.52,13.52,0,0,0-3.51,5l1.29,0.13,6.65,0.63,1.05,1.36-8.19-.7-1.25-.1a13.4,13.4,0,0,0-.5,2.79H382a16.34,16.34,0,0,1,.48-2.94Z" transform="translate(-1.43 -1.65)"/><path class="cls-5" d="M375.74,143.34l0.82,0.08-1.28,4-2.8-3a5.42,5.42,0,0,1,3.21-1.06h0Z" transform="translate(-1.43 -1.65)"/></svg>